<!DOCTYPE svg PUBLIC "-//W3C//DTD SVG 1.1//EN" "http://www.w3.org/Graphics/SVG/1.1/DTD/svg11.dtd">

<!-- Uploaded to: SVG Repo, www.svgrepo.com, Transformed by: SVG Repo Mixer Tools -->
<svg height="30px" width="30px" version="1.1" id="Layer_1" xmlns="http://www.w3.org/2000/svg" xmlns:xlink="http://www.w3.org/1999/xlink" viewBox="0 0 512 512" xml:space="preserve" fill="#000000">

<g id="SVGRepo_bgCarrier" stroke-width="0"/>

<g id="SVGRepo_tracerCarrier" stroke-linecap="round" stroke-linejoin="round"/>

<g id="SVGRepo_iconCarrier"> <polygon style="fill:#CFF09E;" points="131.495,155.529 380.505,155.529 380.505,43.936 15.22,43.936 15.22,300.24 131.495,300.24 "/> <g> <path style="fill:#507C5C;" d="M496.78,223.072c-8.405,0-15.22,6.814-15.22,15.22v158.322h-29.711 c-4.309,0-8.414,1.826-11.301,5.024c-2.887,3.198-4.281,7.472-3.839,11.756l2.804,27.189l-75.719-42.055 c-2.26-1.256-4.803-1.915-7.389-1.915H146.715V300.24v-129.49h233.79c8.405,0,15.22-6.814,15.22-15.22V43.935 c0-8.406-6.816-15.22-15.22-15.22H15.22C6.816,28.714,0,35.529,0,43.935v256.304c0,8.406,6.816,15.22,15.22,15.22h101.055v96.374 c0,8.406,6.816,15.22,15.22,15.22h220.964l97.796,54.318c2.304,1.28,4.849,1.915,7.388,1.915c2.928,0,5.849-0.843,8.385-2.516 c4.733-3.125,7.338-8.622,6.756-14.264l-4.067-39.451h28.063c8.405,0,15.22-6.814,15.22-15.22V238.292 C512,229.886,505.184,223.072,496.78,223.072z M30.44,285.02V59.156h334.844v81.154h-233.79c-8.405,0-15.22,6.814-15.22,15.22 v129.49H30.44V285.02z"/> <path style="fill:#507C5C;" d="M413.83,252.293H214.445c-8.405,0-15.22-6.814-15.22-15.22s6.816-15.22,15.22-15.22H413.83 c8.405,0,15.22,6.814,15.22,15.22S422.234,252.293,413.83,252.293z"/> <path style="fill:#507C5C;" d="M413.83,338.175H214.445c-8.405,0-15.22-6.814-15.22-15.22c0-8.406,6.816-15.22,15.22-15.22H413.83 c8.405,0,15.22,6.814,15.22,15.22C429.05,331.361,422.234,338.175,413.83,338.175z"/> </g> </g>

</svg>