<?xml version="1.0" encoding="utf-8"?>
<!-- Uploaded to: SVG Repo, www.svgrepo.com, Generator: SVG Repo Mixer Tools -->
<svg version="1.1" id="Uploaded to svgrepo.com" xmlns="http://www.w3.org/2000/svg" xmlns:xlink="http://www.w3.org/1999/xlink" 
	 width="800px" height="800px" viewBox="0 0 32 32" xml:space="preserve">
<style type="text/css">
	.avocado_een{fill:#231F20;}
	.avocado_zes{fill:#FFFAEE;}
	.avocado_vier{fill:#AF9480;}
	.avocado_vijf{fill:#DBD2C1;}
	.st0{fill:#EAD13F;}
	.st1{fill:#CC4121;}
	.st2{fill:#E0A838;}
	.st3{fill:#D1712A;}
	.st4{fill:#A3AEB5;}
	.st5{fill:#788287;}
	.st6{fill:#C3CC6A;}
	.st7{fill:#6F9B45;}
	.st8{fill:#248EBC;}
	.st9{fill:#8D3E93;}
	.st10{fill:#3D3935;}
	.st11{fill:#D36781;}
	.st12{fill:#E598A3;}
	.st13{fill:#716558;}
	.st14{fill:#231F20;}
</style>
<g>
	<g>
		<polygon class="avocado_vijf" points="30.5,31.5 30.5,12.481 16,23.002 1.5,12.464 1.5,31.5 		"/>
	</g>
	<polygon class="avocado_vier" points="16,0.625 1.5,12.464 16,23 30.497,12.481 	"/>
	<polygon class="avocado_zes" points="5.5,3.5 5.5,15.372 16,23 26.5,15.377 26.5,3.5 	"/>
	<path class="avocado_een" d="M20,10h-8V9h8V10z M20,11h-8v1h8V11z M20,13h-8v1h8V13z M31,12v20H1V12l4-3.2V3h7.25L16,0
		l3.75,3H27v5.8L31,12z M27,10.081v4.315l2.828-2.053L27,10.081z M13.851,3h4.298L16,1.281L13.851,3z M6,4v11.117l10,7.265l10-7.26
		V4H6z M2.177,12.339L5,14.391v-4.31L2.177,12.339z M2,30.293l9.757-9.757L2,13.447V30.293z M29.293,31l-9.868-9.868L16,23.618
		l-3.424-2.487L2.707,31H29.293z M30,13.454l-9.756,7.083L30,30.293V13.454z"/>
</g>
</svg>