 <svg fill="#000000" viewBox="0 -1.49 306.525 306.525" xmlns="http://www.w3.org/2000/svg">
                        <g id="SVGRepo_bgCarrier" stroke-width="0"></g>
                        <g id="SVGRepo_tracerCarrier" stroke-linecap="round" stroke-linejoin="round"></g>
                        <g id="SVGRepo_iconCarrier">
                            <defs>
                                <style>.a {
                                        fill: #ffffff;
                                    }

                                    .b {
                                        fill: #5199d1;
                                    }

                                    .c {
                                        fill: #211715;
                                    }

                                    .d {
                                        fill: #7abee6;
                                    }</style>
                            </defs>
                            <path class="a"
                                  d="M304.418,221.97c-.017-11.952-.077-36.41-.077-45.1,0,0,0-.121.006-.356-53.9-31.01-135.061-77.919-171.922-99.254C101.212,95.314,38.394,131.613,2.052,152.49c0,10.137.074,40.174.068,49.085,33.15,19.2,119.957,69.372,173.325,100.058,37.885-21.778,99.829-57.575,128.978-74.447v-.459C304.423,225.564,304.421,223.936,304.418,221.97Z"></path>
                            <path class="b"
                                  d="M131.706,77.672C100.37,95.8,38.567,131.512,2.445,152.264c27.372,15.853,126.347,73.071,172.227,99.385,33.5-19.2,106.859-61.579,129.669-74.783,0,0,0-.121.006-.356-53.9-31.01-135.061-77.919-171.922-99.254Z"></path>
                            <path class="c"
                                  d="M306.418,221.97q-.017-12.1-.046-24.2c-.014-7.08-.18-14.18-.025-21.259a2,2,0,0,0-.99-1.727q-35.7-20.539-71.365-41.138-35.376-20.42-70.736-40.866-14.913-8.622-29.822-17.25a2.022,2.022,0,0,0-2.019,0q-23.761,13.748-47.534,27.477-27.843,16.083-55.7,32.141-13.564,7.815-27.137,15.616a2.011,2.011,0,0,0-.99,1.727q0,17.325.052,34.651.008,4.278.013,8.555a38.656,38.656,0,0,0,.039,6.145c.23,1.362,1.723,1.905,2.8,2.531L5.7,205.957l6.032,3.491Q26.9,218.227,42.08,227q18.662,10.79,37.328,21.569,19.842,11.46,39.687,22.909,19.078,11.005,38.164,22c5.65,3.254,11.22,6.807,17.015,9.792,1.709.88,3.314-.559,4.778-1.4l4.2-2.414q4.42-2.543,8.84-5.088,19.689-11.339,39.363-22.7,19.755-11.4,39.5-22.815,16.167-9.344,32.33-18.7c1.141-.661,2.865-1.267,3.1-2.705a34.234,34.234,0,0,0,.031-5.482c0-2.574-4-2.579-4,0q0,2.607,0,5.216l.99-1.727q-22.851,13.227-45.715,26.433-27.7,16-55.409,31.978-13.923,8.025-27.854,16.036h2.019q-36.443-20.954-72.843-41.982Q67.646,237.164,31.7,216.375,17.411,208.115,3.13,199.848l.99,1.727c.008-13.314-.041-26.628-.06-39.942q-.007-4.572-.008-9.143l-.991,1.727q25.616-14.715,51.2-29.489Q81.6,108.951,108.934,93.151q12.252-7.083,24.5-14.169h-2.019q29.592,17.129,59.2,34.231,37.073,21.42,74.163,42.811,19.275,11.115,38.561,22.213l-.991-1.727c-.155,7.079.011,14.179.025,21.259q.024,12.1.046,24.2C302.422,224.543,306.422,224.548,306.418,221.97Z"></path>
                            <path class="c"
                                  d="M173.07,251.515q0,20.736.072,41.472.007,4.194.01,8.389c0,2.574,4,2.578,4,0,0-13.5-.05-27-.072-40.5q-.008-4.683-.01-9.366c0-2.574-4-2.578-4,0Z"></path>
                            <path class="c"
                                  d="M3.431,155.137q12.11,7.017,24.226,14.023,17.038,9.855,34.083,19.7,19.348,11.18,38.7,22.349,19.039,10.988,38.085,21.96,16.109,9.279,32.23,18.536l3.306,1.9c2.236,1.283,4.254-2.172,2.018-3.454q-15.582-8.934-31.146-17.9-18.829-10.842-37.647-21.7-19.458-11.228-38.91-22.465Q50.91,177.986,33.444,167.886,20.582,160.446,7.723,153L5.45,151.683c-2.232-1.293-4.248,2.163-2.019,3.454Z"></path>
                            <path class="c"
                                  d="M175.093,266.638q-13.441-7.707-26.865-15.444-16.377-9.43-32.745-18.877Q98.6,222.576,81.724,212.826q-15.236-8.8-30.468-17.609Q40.09,188.76,28.925,182.3q-.992-.576-1.985-1.15c-2.232-1.293-4.248,2.162-2.019,3.454q10.509,6.087,21.023,12.165,14.86,8.6,29.723,17.181,16.79,9.7,33.584,19.393,16.566,9.559,33.138,19.108,13.9,8.01,27.822,16l2.863,1.642c2.237,1.282,4.254-2.173,2.019-3.454Z"></path>
                            <path class="c"
                                  d="M164.115,276.518q-13.019-7.465-26-15c-2.232-1.292-4.248,2.163-2.019,3.454q12.987,7.522,26,15c2.237,1.283,4.254-2.172,2.019-3.454Z"></path>
                            <path class="d"
                                  d="M249.423,264.6c-4.618,2.652-19.594,11.3-26.406,15.225-6.573-3.775-18.231-10.493-26.936-15.517,8.226-4.732,17.274-9.942,26.426-15.225C231.441,254.238,243.172,261.009,249.423,264.6Z"></path>
                            <path class="c"
                                  d="M196.081,266.305h.01l-1.009-.273q12.546,7.256,25.113,14.476a8.03,8.03,0,0,0,2.556,1.278c1,.135,1.928-.612,2.756-1.09l4.73-2.726,10.752-6.2q4.72-2.724,9.443-5.442a2.019,2.019,0,0,0,0-3.454q-13.471-7.734-26.915-15.517c-2.234-1.29-4.25,2.166-2.019,3.454q13.452,7.767,26.915,15.517V262.87q-13.215,7.59-26.4,15.225h2.018q-6.6-3.792-13.2-7.6-3.7-2.13-7.4-4.264l-3.672-2.121c-1.027-.593-2.463-1.809-3.677-1.809-2.574,0-2.578,4,0,4Z"></path>
                            <path class="c"
                                  d="M286.81,209.632q-18.458,10.689-36.931,21.348-24.841,14.343-49.7,28.659-12.856,7.4-25.721,14.785c-2.234,1.279-.221,4.736,2.019,3.454q23.758-13.6,47.456-27.312,23.481-13.537,46.948-27.1,8.974-5.187,17.947-10.381c2.227-1.29.215-4.748-2.019-3.454Z"></path>
                            <path class="c"
                                  d="M175.9,253.25q26.069-14.942,52.086-29.973,28.068-16.185,56.119-32.4,10.623-6.139,21.243-12.285c2.227-1.289.215-4.747-2.019-3.454q-22.163,12.829-44.342,25.629-29.14,16.827-58.3,33.622-13.4,7.713-26.807,15.406c-2.233,1.28-.221,4.737,2.019,3.454Z"></path>
                            <path class="a"
                                  d="M262.249,148.658c-.013-8.922-.058-27.182-.058-33.672,0,0,0-.091.005-.266-40.238-23.15-100.831-58.17-128.349-74.1-23.3,13.482-70.2,40.58-97.331,56.166,0,7.568.056,29.992.051,36.644,24.749,14.33,89.555,51.791,129.4,74.7,28.284-16.258,74.528-42.983,96.289-55.578v-.343C262.252,151.341,262.251,150.126,262.249,148.658Z"></path>
                            <path class="d"
                                  d="M132.1,41.632C108.27,55.418,62.986,81.582,36.516,96.788c0,7.568.056,29.992.051,36.644,10.763,6.232,29.1,16.839,49.67,28.722-.015-9.132-.054-29.307-.058-36.983,41.833-24.166,77.077-44.545,96.955-56.052-19.693-11.377-37.516-21.684-49.287-28.5Z"></path>
                            <path class="c"
                                  d="M264.249,148.658c-.017-11.3-.3-22.637-.053-33.938a2,2,0,0,0-.991-1.727q-26.644-15.33-53.265-30.7-26.406-15.242-52.8-30.5Q146,45.342,134.856,38.9a2.022,2.022,0,0,0-2.019,0Q115.073,49.173,97.3,59.438,76.566,71.414,55.822,83.37,45.667,89.221,35.507,95.061a2.012,2.012,0,0,0-.991,1.727q0,13.088.04,26.174.006,3.168.009,6.336c0,1.423-.307,3.282.074,4.666.407,1.478,3.19,2.51,4.45,3.24l4.6,2.664q25.283,14.63,50.579,29.237,29.014,16.757,58.045,33.482l6.622,3.812,3.049,1.754a24.646,24.646,0,0,0,3.205,1.806c1.32.511,2.554-.546,3.655-1.179l3.327-1.914q3.364-1.935,6.727-3.872,14.649-8.436,29.29-16.889,26.814-15.475,53.612-30.982c1.092-.632,2.346-1.125,2.448-2.57.091-1.285,0-2.608,0-3.9,0-2.573-4-2.578-4,0q0,1.947,0,3.9l.991-1.727q-17.022,9.852-34.054,19.689-20.719,11.972-41.45,23.923-10.391,5.988-20.785,11.967h2.019q-27.173-15.626-54.314-31.3Q85.84,159.623,59.035,144.12q-10.731-6.2-21.458-12.415l.99,1.727c.006-9.911-.03-19.822-.045-29.734q0-3.454-.006-6.91l-.99,1.727q19.149-11,38.273-22.046,20.362-11.748,40.713-23.513,9.174-5.3,18.344-10.607h-2.019Q154.923,55.132,177.021,67.9q27.671,15.988,55.355,31.954,14.4,8.3,28.81,16.6l-.99-1.727c-.248,11.3.036,22.635.053,33.938C260.253,151.232,264.253,151.237,264.249,148.658Z"></path>
                            <path class="c"
                                  d="M163.684,170.715c0,8.464.06,16.927.061,25.391,0,2.573,4,2.578,4,0,0-8.464-.06-16.927-.061-25.391,0-2.573-4-2.578-4,0Z"></path>
                            <path class="c"
                                  d="M167.078,169.479q-22.767-13.054-45.486-26.189-24.511-14.142-49.009-28.309-9.279-5.365-18.555-10.737c-2.231-1.292-4.248,2.163-2.019,3.454q19.355,11.211,38.723,22.394,25.449,14.7,50.913,29.378,11.7,6.741,23.414,13.463c2.237,1.283,4.254-2.172,2.019-3.454Z"></path>
                            <path class="c"
                                  d="M166.56,172.448q16.453-9.429,32.875-18.917,17.652-10.18,35.295-20.377,6.756-3.9,13.509-7.813c2.228-1.289.216-4.747-2.018-3.454q-13.989,8.1-27.988,16.177-18.321,10.579-36.655,21.14-8.516,4.9-17.037,9.79c-2.233,1.28-.22,4.738,2.019,3.454Z"></path>
                            <path class="c"
                                  d="M87.3,126.831q21.956-12.682,43.907-25.371,17.827-10.3,35.652-20.615,7.624-4.41,15.247-8.823c2.227-1.289.216-4.747-2.019-3.454Q165.348,77.1,150.6,85.629q-19.836,11.47-39.675,22.934-12.82,7.408-25.64,14.814c-2.229,1.288-.217,4.745,2.018,3.454Z"></path>
                            <path class="c"
                                  d="M84.174,125.153c.013,11.343.061,22.686.062,34.029,0,2.574,4,2.578,4,0,0-11.343-.049-22.686-.062-34.029,0-2.573-4-2.578-4,0Z"></path>
                            <path class="b"
                                  d="M147.3,125.829a15.793,15.793,0,0,1-1.6,6.165c-1.986,3.9-5.818,6.569-9.853,8.269s-4.613,1.258-8.788,2.575c-3.255,1.028-6.663,2.507-8.058,5.8a19.236,19.236,0,0,0-1.031,5.231c-.3,6.748-.246,13.766-.33,20.711a2.279,2.279,0,0,1-1.57,2.19,32.153,32.153,0,0,1-14.655.781,2.925,2.925,0,0,1-1.3-.873,3.959,3.959,0,0,1-1.1-1.831c-.376-3.152-.557-6.188-.664-9.228-3.493.776-7.485,2.116-11.2,1.209-2.583-.63-5-2.6-5.4-5.229l-.328-2.171c-.577-10.62-1.153-9.283-1.73-19.9-.194-3.573-.35-7.341,1.282-10.526a17.826,17.826,0,0,1,5.664-5.909,69.03,69.03,0,0,1,14.464-8.107S140.619,124.465,147.3,125.829Z"></path>
                            <path class="a"
                                  d="M139.221,129.388c2.3-1.288,5.263-2.738,8.123-4.452,4.746-2.84,9.258-6.429,10.191-11.246a20.126,20.126,0,0,0-.03-6.288c-.913-7.372-2.657-16.782-7.251-22.847-2.8-3.711-7.22-8.5-11.53-10.708,0,0-7.477-3.62-14.741-4.094-11.662-.76-17.63,4.211-17.63,4.211a35.256,35.256,0,0,0-13.2,20.8l-2.036,11.716-.735,4.228Z"></path>
                            <path class="a"
                                  d="M92.472,187.1a7.359,7.359,0,0,1,1.429-6.02,18.158,18.158,0,0,1,5.436-4.375c2.1,1.644,10.632,1.962,16.738.07a2.155,2.155,0,0,0,.583-.281c.075.712.123,1.153.123,1.153.635,5.8-2.878,8.132-5.108,9.459a33.619,33.619,0,0,1-8.5,3.578,13.9,13.9,0,0,1-5.547.544A6.453,6.453,0,0,1,93,188.377,4.975,4.975,0,0,1,92.472,187.1Z"></path>
                            <path class="a"
                                  d="M74.609,174.532a8.013,8.013,0,0,1,1.143-2.133,19.283,19.283,0,0,1,5.892-4.614,9.908,9.908,0,0,1,3.808-1.581,8.118,8.118,0,0,0,1.708.628c3.715.907,7.706-.432,11.2-1.208.075,2.19.191,4.379.39,6.61l-1.569.259c.117,2.5-2.1,4.451-4.251,5.73a32.523,32.523,0,0,1-8.219,3.459,13.348,13.348,0,0,1-5.363.52,6.2,6.2,0,0,1-4.469-2.752A5.834,5.834,0,0,1,74.609,174.532Z"></path>
                            <path class="c"
                                  d="M114.781,177.646a7.173,7.173,0,0,1-2.6,6.744,27.806,27.806,0,0,1-9.546,4.365c-2.774.734-8.287,1.217-8.341-3.036-.048-3.8,3.874-6,6.706-7.677,2.215-1.308.2-4.768-2.019-3.454-3.347,1.979-6.708,4.195-8.125,8a7.646,7.646,0,0,0,3.415,9.613c3.843,2.013,8.374.934,12.235-.467a28.608,28.608,0,0,0,8.717-4.684,10.7,10.7,0,0,0,3.557-9.4,2.054,2.054,0,0,0-2-2,2.014,2.014,0,0,0-2,2Z"></path>
                            <path class="c"
                                  d="M84.654,164.313a16.007,16.007,0,0,0-4.947,2.3,23.828,23.828,0,0,0-4.18,3.047c-2.462,2.346-4.081,6.009-2.991,9.4,1.152,3.586,4.914,5.327,8.474,5.234,3.839-.1,7.774-1.632,11.153-3.361,3.325-1.7,7.049-4.282,7.021-8.44-.017-2.573-4.017-2.578-4,0,.02,2.939-4.316,4.71-6.5,5.691a29.355,29.355,0,0,1-4.9,1.674,8.873,8.873,0,0,1-5.219.092c-2.89-1.085-2.818-4.228-1.172-6.419a13.333,13.333,0,0,1,3.723-3.089,14.635,14.635,0,0,1,4.607-2.272c2.521-.513,1.454-4.37-1.063-3.857Z"></path>
                            <path class="c"
                                  d="M100.579,113.06a70.434,70.434,0,0,0-15.936,9.055A17.465,17.465,0,0,0,78.9,128.77a20.213,20.213,0,0,0-1.288,8.816c.145,4.315.56,8.6,1.078,12.882.468,3.871.445,7.814,1.14,11.65a8.57,8.57,0,0,0,5.238,6.095c3.36,1.444,7.061.907,10.516.126,2.51-.568,1.448-4.425-1.063-3.857-3.733.844-10.033,1.5-10.863-3.615-.547-3.376-.543-6.857-.955-10.287-.432-3.6-.786-7.185-.987-10.805a26.637,26.637,0,0,1,.258-7.65A11.423,11.423,0,0,1,86.1,126.04a59.884,59.884,0,0,1,15.547-9.123,2.067,2.067,0,0,0,1.4-2.461,2.012,2.012,0,0,0-2.46-1.4Z"></path>
                            <path class="c"
                                  d="M100.164,132.346c-3.427,2.382-4.287,6.117-4.349,10.043-.063,3.982.149,7.963.273,11.942.163,5.219.14,10.447.49,15.659.162,2.415-.015,5.366,1.518,7.367,1.471,1.92,3.274,2.323,5.555,2.563a32.691,32.691,0,0,0,6.583-.023,25.468,25.468,0,0,0,6.682-1.313c2.61-1.017,2.724-3.519,2.748-5.939.026-2.75.036-5.5.063-8.248.026-2.719.067-5.439.157-8.157a21.132,21.132,0,0,1,.869-6.581c1.335-3.616,6.074-4.806,9.41-5.611,4.326-1.044,8.49-2.4,12.092-5.128a17.661,17.661,0,0,0,7.089-13.984c.1-2.575-3.9-2.57-4,0a13.521,13.521,0,0,1-5.209,10.6,24.277,24.277,0,0,1-9.661,4.338c-3.565.792-7.351,1.8-10.27,4.1-3.241,2.55-4.041,6.447-4.248,10.373-.263,4.957-.232,9.935-.266,14.9q-.012,1.821-.029,3.641a6.473,6.473,0,0,1-.019,1.7c-.113.321-.066.2-.277.316a10.29,10.29,0,0,1-2.864.679,29.023,29.023,0,0,1-3.068.386,32,32,0,0,1-5.782-.046,4.833,4.833,0,0,1-1.833-.38c-.931-.554-.906-1.627-1-2.559-.458-4.709-.531-9.44-.625-14.167-.09-4.491-.319-8.977-.379-13.469-.022-1.69-.05-3.4.08-5.083.011-.139.022-.279.036-.419.041-.4-.026.122.011-.066a9.215,9.215,0,0,1,.433-1.563,5.218,5.218,0,0,1,1.805-2.415c2.1-1.459.1-4.928-2.019-3.453Z"></path>
                            <path class="c"
                                  d="M105.344,72.237A37.579,37.579,0,0,0,91.227,94.228c-.535,2.511,3.32,3.584,3.857,1.063a33.434,33.434,0,0,1,12.279-19.6,2.065,2.065,0,0,0,.717-2.736,2.013,2.013,0,0,0-2.736-.718Z"></path>
                            <path class="a"
                                  d="M93.073,114.983c-2.224-1.387-3.149-3.73-3.512-6.217-.407-2.788.07-6.337,4.127-7.351a5.776,5.776,0,0,1,4.225.789,7.917,7.917,0,0,1,3.891,7.682c-.274,3.305-3.391,6.336-6.673,5.857A5.3,5.3,0,0,1,93.073,114.983Z"></path>
                            <path class="c"
                                  d="M94.082,113.256a4.789,4.789,0,0,1-1.2-1.091c.179.224-.08-.121-.118-.177q-.142-.215-.27-.438c-.068-.12-.133-.241-.195-.364,0,0-.247-.563-.135-.281a10.884,10.884,0,0,1-.527-1.825c-.036-.175-.068-.35-.1-.527-.023-.136-.076-.619-.018-.083-.027-.253-.053-.5-.066-.759a11.088,11.088,0,0,1,.031-1.4c.028-.375,0,0-.01.067.026-.127.046-.256.075-.383.062-.281.152-.548.241-.821-.145.45.086-.167.161-.3s.481-.637.185-.309a7.33,7.33,0,0,1,.518-.525c.232-.209-.39.224.072-.053.155-.092.3-.193.464-.279.111-.059.224-.117.339-.167-.287.125.028,0,.076-.018a8.126,8.126,0,0,1,.907-.24c-.447.076.185.012.35.015s.33.012.494.03c.141.014.135.014-.017,0,.106.018.211.041.314.067a4.093,4.093,0,0,1,1.6.774c.023.016.3.226.1.065.108.083.212.172.315.262a8.939,8.939,0,0,1,.78.765,5.348,5.348,0,0,1,1.266,2.531c-.007-.033.112.588.068.309s.034.362.031.326a8.924,8.924,0,0,1,.019.925c0,.178-.014.355-.029.532.007-.087.073-.34-.01.072a8.048,8.048,0,0,1-.268.979c-.2.6.086-.15-.078.179-.09.184-.187.363-.292.539a2.539,2.539,0,0,1-.474.661,6.713,6.713,0,0,1-.729.7c.216-.177-.041.027-.077.05-.168.108-.334.218-.51.314a3.428,3.428,0,0,1-1.436.41,3.112,3.112,0,0,1-1.848-.536,2,2,0,0,0-2.019,3.454c3.7,2.2,8,.706,10.326-2.693a9.511,9.511,0,0,0-.039-10.192c-1.981-3.046-5.7-5.311-9.4-4.283a7.481,7.481,0,0,0-5.485,7.081c-.247,3.835,1.314,7.961,4.6,10.087a2,2,0,1,0,2.019-3.454Z"></path>
                            <path class="c"
                                  d="M105.936,88.593v22.294c0,2.573,4,2.578,4,0V88.593c0-2.573-4-2.578-4,0Z"></path>
                            <path class="a"
                                  d="M107.241,114.679c-6.151,1.042-12.429,3.442-21.5,4.947,5.591,2.695,16.106,7.872,26.161,12.9,8.737-3.557,11.224-4.177,16.692-6.274C119.446,121.533,107.259,114.676,107.241,114.679Z"></path>
                            <path class="c"
                                  d="M106.71,112.75c-7.252,1.256-14.23,3.722-21.5,4.948-1.664.28-1.971,2.935-.477,3.655,5.911,2.852,11.8,5.759,17.674,8.675q2.647,1.314,5.291,2.632c.924.461,1.843.932,2.771,1.383a3.157,3.157,0,0,0,3.079-.036q4.138-1.668,8.332-3.189c2.418-.87,4.845-1.716,7.246-2.634,1.479-.566,2.138-2.8.478-3.656-4.738-2.449-9.427-4.992-14.1-7.56-2.408-1.324-4.776-2.823-7.252-4.016-2.309-1.113-4.34,2.335-2.019,3.454,2.476,1.193,4.844,2.692,7.253,4.016,4.673,2.568,9.362,5.111,14.1,7.56l.478-3.655c-5.555,2.124-11.178,4.033-16.691,6.274l1.541.2c-8.7-4.35-17.4-8.678-26.161-12.9l-.478,3.656c7.27-1.226,14.247-3.691,21.5-4.948a2.016,2.016,0,0,0,1.4-2.46A2.046,2.046,0,0,0,106.71,112.75Z"></path>
                            <path class="a"
                                  d="M123.346,123.941c.59-4.779,5.592-8.765,12.015-6,.97,2.982,2.655,7.49,3.691,11.258-1.412,1.142-2.633,2.134-2.633,2.134-2.066,2.494-6.63,2.045-9.112.535A8.248,8.248,0,0,1,123.346,123.941Z"></path>
                            <path class="c"
                                  d="M134.669,115.558a10.875,10.875,0,0,0-8.109.606,9.931,9.931,0,0,0-4.665,5.356c-1.98,5.2,1.152,11.056,6.246,12.922,3.117,1.141,7.38.975,9.692-1.7a2.049,2.049,0,0,0,0-2.828,2.018,2.018,0,0,0-2.828,0c-.1.111-.2.212-.3.321-.066.074-.369.316-.058.08a5.244,5.244,0,0,1-.665.405c-.1.053-.449.166-.085.043-.113.038-.223.078-.337.112a6.626,6.626,0,0,1-.88.2c.4-.064,0,0-.107,0-.155.006-.309.018-.464.021-.281,0-.56-.014-.84-.026-.1,0-.51-.051-.12,0-.123-.017-.246-.038-.368-.061a9.5,9.5,0,0,1-.984-.233c-.257-.075-.509-.164-.76-.257.386.143-.264-.127-.372-.185a6.581,6.581,0,0,1-.663-.416c-.487-.338.161.14-.106-.082-.138-.114-.274-.23-.406-.35q-.288-.263-.555-.546c-.076-.082-.151-.165-.225-.25,0,0-.343-.419-.156-.179s-.129-.184-.131-.187c-.06-.087-.119-.175-.175-.264a7.953,7.953,0,0,1-.419-.741c-.056-.113-.109-.227-.161-.342.027.061.144.4.032.063-.076-.233-.16-.461-.224-.7-.05-.187-.09-.375-.129-.564-.007-.036-.075-.5-.031-.157s-.01-.163-.014-.228a10.554,10.554,0,0,1,.027-1.331c-.026.449-.011.068.033-.155a8.044,8.044,0,0,1,.2-.8c.055-.176.124-.346.182-.521.14-.425-.164.268-.012.033.06-.094.1-.211.151-.311q.142-.276.306-.541c.071-.115.549-.764.2-.332a8.389,8.389,0,0,1,.849-.919c.076-.069.556-.463.334-.294-.261.2.115-.077.139-.093.119-.077.236-.157.358-.231.2-.123.414-.238.628-.342.025-.012.46-.2.158-.077-.285.118.182-.063.24-.082a7.626,7.626,0,0,1,.788-.226c.176-.041.871-.13.375-.084a12.728,12.728,0,0,1,1.779-.018c.086,0,.392.047-.023-.011.174.024.347.055.519.089.359.071.712.165,1.063.27a2,2,0,1,0,1.063-3.857Z"></path>
                            <path class="c"
                                  d="M140.793,101.53c-.076-.534-.03-.233,0,.079.022.262.043.523.062.785.053.749.093,1.5.128,2.249.075,1.641.13,3.288.091,4.932-.007.321-.017.643-.039.964-.012.187-.024.9-.022.364,0,.529-.181,0,.074-.043-.281.052-.819.627-1.112.863-2.011,1.624-3.965,3.316-5.98,4.934a1.945,1.945,0,0,0-.514,1.946c1.249,3.789,2.662,7.524,3.716,11.376a2.023,2.023,0,0,0,2.938,1.195c8.293-4.639,19.882-9.366,19.636-20.62a65.372,65.372,0,0,0-2.318-14.635,35.353,35.353,0,0,0-5.68-12.653c-3.28-4.3-7.191-8.592-12.034-11.146-2.276-1.2-4.3,2.251-2.019,3.454,3.864,2.038,7.016,5.321,9.762,8.665a30.465,30.465,0,0,1,5.578,10.824,74.983,74.983,0,0,1,2.479,12.581c.286,2.381.512,4.948-.422,7.222a13.139,13.139,0,0,1-3.494,4.572c-3.931,3.564-8.923,5.718-13.507,8.282l2.938,1.2c-1.054-3.852-2.467-7.588-3.716-11.377l-.515,1.946c2.155-1.73,4.238-3.549,6.4-5.27,1.5-1.191,1.765-2.354,1.838-4.189a53.6,53.6,0,0,0-.406-9.56,2.013,2.013,0,0,0-2.46-1.4,2.054,2.054,0,0,0-1.4,2.461Z"></path>
                            <path class="a"
                                  d="M140.522,92.806a.873.873,0,0,1,.156.57c-.079.326-.457.457-.783.522a65.819,65.819,0,0,1-9.725,2.272.8.8,0,0,1-.625-.156.762.762,0,0,1-.157-.509c-.247-3.011-.705-8.157-1.06-10.54a28.924,28.924,0,0,1-17.875-3.784c-1.57-1-3.692-3.017-4.1-4.833a4.3,4.3,0,0,1,1.934-4.292c1.31-.929,6.269-.776,5.164-.668a19.529,19.529,0,0,0,4.509,3.427,20.363,20.363,0,0,0,21.76-1.679l.983.3a5.059,5.059,0,0,1,3.084,3.959,2.678,2.678,0,0,1-1.125,2.277,28.884,28.884,0,0,1-7.428,3.818,47.337,47.337,0,0,1,5.261,9.266Z"></path>
                            <path class="a"
                                  d="M107.092,54.433a23.034,23.034,0,0,0,5.485,16.041A19.877,19.877,0,0,0,140.5,72.5a11.488,11.488,0,0,0,7.635-2.39,7.284,7.284,0,0,0,2.771-6.5,5.294,5.294,0,0,0-3.085-3.9,18.98,18.98,0,0,0-6.568-22.174c-8.9-6.321-21.474-5.451-28.785,2.866A22.461,22.461,0,0,0,107.092,54.433Z"></path>
                            <path class="a"
                                  d="M109.989,43.9a22.736,22.736,0,0,0-2.6,7.5,38.071,38.071,0,0,0,15.638-1.885,1.083,1.083,0,0,1,.861.074c.631.355-.131,1.733-.487,2.363,2.24.631,7.725-.4,10.149-1.732,1.348,3.276,2.723,4.983,5.365,6.22l7.092,2.825a5.059,5.059,0,0,1,1.813.445,18.994,18.994,0,0,0-6.574-22.177c-8.9-6.321-21.474-5.451-28.785,2.866A20.56,20.56,0,0,0,109.989,43.9Z"></path>
                            <path class="c"
                                  d="M150.058,59.4a21.143,21.143,0,0,0-7.006-22.991A24.253,24.253,0,0,0,119.438,33.1c-8.2,3.365-13.342,11.021-14.234,19.728a24.63,24.63,0,0,0,10.012,22.638c8.186,5.717,20.023,4.711,27.263-2.074,1.883-1.764-.95-4.588-2.828-2.828a18.21,18.21,0,0,1-20.042,2.862c-6.732-3.362-10.491-10.586-10.532-17.961-.039-7.089,3.334-13.988,9.583-17.57a20.1,20.1,0,0,1,19.62.129A17.181,17.181,0,0,1,146.2,58.332c-.792,2.456,3.069,3.507,3.857,1.064Z"></path>
                            <path class="c"
                                  d="M146.01,61.269c.471.033-.219-.087.2.022.178.047.358.084.534.141.1.033.51.228.207.073.165.084.329.17.486.267.072.045.464.329.2.117a5.192,5.192,0,0,1,.412.373,4.848,4.848,0,0,1,.372.413c-.234-.3.072.134.113.2a4.82,4.82,0,0,1,.261.492c-.16-.356.034.139.057.22a4.123,4.123,0,0,1,.123.55c-.057-.4-.006.159,0,.242,0,.2-.009.39-.02.585-.024.447.068-.153-.042.247-.089.326-.263.956-.321,1.091a6.862,6.862,0,0,1-1.064,1.637,5.874,5.874,0,0,1-1.734,1.338,7.976,7.976,0,0,1-2.148.885,11.789,11.789,0,0,1-1.275.283q-.213.033,0,0c-.106.012-.212.023-.318.031-.245.021-.489.032-.735.038a2,2,0,0,0,0,4c4.771-.117,9.592-2.7,11.213-7.38a7.458,7.458,0,0,0-.689-6.514,7.567,7.567,0,0,0-5.827-3.355,2.01,2.01,0,0,0-2,2,2.049,2.049,0,0,0,2,2Z"></path>
                            <path class="c"
                                  d="M119.708,61.708a3.162,3.162,0,0,1-1.29,2.382,2.459,2.459,0,0,1-1.811.343,2.76,2.76,0,0,1-1.993-1.5,3.228,3.228,0,0,1,.8-3.714,2.555,2.555,0,0,1,3.474.191A2.845,2.845,0,0,1,119.708,61.708Z"></path>
                            <path class="c"
                                  d="M131.867,64.192a3.172,3.172,0,0,1-1.29,2.382,2.464,2.464,0,0,1-1.812.342,2.756,2.756,0,0,1-1.992-1.5,3.228,3.228,0,0,1,.8-3.714,2.554,2.554,0,0,1,3.473.191A2.85,2.85,0,0,1,131.867,64.192Z"></path>
                            <path class="c"
                                  d="M131.625,50.755a17.412,17.412,0,0,0,2.686,4.728,10.639,10.639,0,0,0,3.6,2.687,2.151,2.151,0,0,0,1.541.2,2,2,0,0,0,.478-3.655,10.46,10.46,0,0,1-1.915-1.148l.4.313a8.786,8.786,0,0,1-1.543-1.558l.312.4A15.01,15.01,0,0,1,135.4,49.5l.2.478c-.04-.095-.08-.19-.119-.285a2.2,2.2,0,0,0-.919-1.2,2,2,0,0,0-2.737.717,1.929,1.929,0,0,0-.2,1.541Z"></path>
                            <path class="c"
                                  d="M132.544,48.5c-2.283,1.2-6.187,2.135-8.608,1.53l1.195,2.938c.77-1.376,1.61-3.289.324-4.65-1.486-1.573-3.6-.465-5.3,0a37.782,37.782,0,0,1-12.112,1.136c-2.572-.142-2.564,3.858,0,4a43.455,43.455,0,0,0,8.119-.279c1.268-.168,2.527-.384,3.773-.675q.969-.226,1.923-.5.535-.156,1.064-.329c.142-.045.284-.092.425-.141q.42-.146.01,0l-.882-.514.149.135-.514-.883c-.2-.478.174-.436-.053-.035-.134.236-.249.484-.382.721a2.022,2.022,0,0,0,1.195,2.938,14.539,14.539,0,0,0,5.9-.1,19.353,19.353,0,0,0,5.794-1.833c2.278-1.2.259-4.655-2.019-3.454Z"></path>
                            <path class="c"
                                  d="M112.787,69.306c-1.89.015-4.187.059-5.767,1.219a6.268,6.268,0,0,0-2.66,5.969c.741,4.482,5.88,7.212,9.693,8.66a32.525,32.525,0,0,0,26.778-1.979c2.247-1.254,5.1-2.8,4.956-5.785a6.947,6.947,0,0,0-4.552-5.887c-2.422-.885-3.466,2.98-1.063,3.857.773.282,1.963,1.688,1.493,2.52-.32.567-1.449,1.015-1.978,1.333-.737.443-1.491.858-2.263,1.235a28.8,28.8,0,0,1-9.448,2.558,27.509,27.509,0,0,1-9.826-.751c-3.116-.8-6.393-2.064-8.637-4.458-1.039-1.109-1.764-2.386-.565-3.676.888-.955,2.627-.8,3.839-.815,2.572-.02,2.578-4.02,0-4Z"></path>
                            <path class="c"
                                  d="M133.677,84.732a52.821,52.821,0,0,1,4.587,8.589c.092.2.175.417.282.606.493.869,1.707-2.048.666-1.807-.448.1-.888.27-1.331.4-.934.267-1.877.5-2.825.72q-1.4.318-2.806.575-.72.132-1.441.249-.3.049-.594.094l-.386.059a.876.876,0,0,1,.725.073l.718.717q.132.846.119.323c0-.121,0-.242,0-.363,0-.187,0-.373,0-.56q-.007-.685-.037-1.369-.061-1.485-.208-2.965a39.291,39.291,0,0,0-.891-5.637A2,2,0,1,0,126.4,85.5q.184.744.323,1.5c.046.243.088.488.128.733.025.158.05.316.074.475.01.07.084.595.061.417-.031-.231.022.183.028.231.021.168.04.336.059.5.031.272.059.545.085.817q.094.975.152,1.953c.07,1.181-.015,2.39.093,3.564a2.57,2.57,0,0,0,1.821,2.37,5.677,5.677,0,0,0,2.448-.108,60.425,60.425,0,0,0,7.8-1.732,7.241,7.241,0,0,0,1.753-.627,2.547,2.547,0,0,0,1.141-2.824,13.075,13.075,0,0,0-.828-1.853c-.268-.586-.533-1.175-.8-1.762a39.033,39.033,0,0,0-3.61-6.44A2.044,2.044,0,0,0,134.4,82a2.024,2.024,0,0,0-.718,2.736Z"></path>
                            <path class="a"
                                  d="M201.5,87.577c-12.06,0-20.4,8.7-20.4,18.875,0,11.388,8.514,19.23,20.4,19.23,12.339,0,20.4-7.915,20.4-19.23C221.9,96.205,213.517,87.577,201.5,87.577Z"></path>
                            <path class="a"
                                  d="M201.5,67.037c-9.449,0-15.98,6.815-15.98,14.789,0,8.922,6.672,15.066,15.98,15.066,9.668,0,15.98-6.2,15.98-15.066C217.48,73.8,210.915,67.037,201.5,67.037Z"></path>
                            <path class="c"
                                  d="M213.184,93.234c9.691,7.12,8.608,22.843-2.1,28.344-9.65,4.957-23.845,1.382-27.2-9.673a16.971,16.971,0,0,1,5.985-18.713,2.06,2.06,0,0,0,.717-2.737,2.015,2.015,0,0,0-2.736-.717,20.955,20.955,0,0,0-8.451,20.421,20.194,20.194,0,0,0,10.936,15.009,26.065,26.065,0,0,0,20.6.833,20.091,20.091,0,0,0,12.22-13.619,21.119,21.119,0,0,0-7.956-22.6,2.014,2.014,0,0,0-2.736.718,2.045,2.045,0,0,0,.717,2.736Z"></path>
                            <path class="c"
                                  d="M201.5,65.037c-7.514.072-14.558,4.245-17.1,11.512A16.91,16.91,0,0,0,190.156,95.4c5.832,4.344,14.65,4.634,20.972,1.192,6.244-3.4,9.211-10.612,8.112-17.5-1.372-8.61-9.389-13.967-17.74-14.047-2.575-.025-2.577,3.975,0,4,5.695.055,11.383,3.07,13.294,8.7,1.7,5.012.251,11.091-4.041,14.353-4.464,3.393-11.442,3.748-16.386,1.223a12.745,12.745,0,0,1-6.725-13.306c1.033-6.816,7.279-10.906,13.858-10.969C204.072,69.012,204.079,65.012,201.5,65.037Z"></path>
                            <path class="a"
                                  d="M261.586,68.409a5.747,5.747,0,0,0-5.861,5.824,5.652,5.652,0,0,0,5.861,5.934,5.592,5.592,0,0,0,5.861-5.934A5.741,5.741,0,0,0,261.586,68.409Z"></path>
                            <path class="a"
                                  d="M200.6,2a5.747,5.747,0,0,0-5.86,5.825,5.651,5.651,0,0,0,5.86,5.933,5.592,5.592,0,0,0,5.861-5.933A5.742,5.742,0,0,0,200.6,2Z"></path>
                            <path class="a"
                                  d="M61.551,27.512a5.747,5.747,0,0,0-5.861,5.825,5.652,5.652,0,0,0,5.861,5.933,5.592,5.592,0,0,0,5.861-5.933A5.742,5.742,0,0,0,61.551,27.512Z"></path>
                            <path class="c"
                                  d="M261.586,66.409a7.869,7.869,0,0,0-7.512,5.481,8.068,8.068,0,0,0,2.56,8.618,8.385,8.385,0,0,0,9.077.611,7.987,7.987,0,0,0,3.6-8.273,7.807,7.807,0,0,0-7.729-6.437,2,2,0,0,0,0,4c.17,0,.34.016.51.02.534.012-.388-.106.122.014.259.061.518.113.772.2.1.032.195.069.293.105-.468-.169,0,.006.082.051a6.178,6.178,0,0,1,.766.479c-.418-.3.168.173.266.275s.2.22.3.329c-.3-.33-.07-.1,0,.009.146.231.278.465.413.7.051.089.139.348-.018-.069.071.188.14.375.2.569a6.979,6.979,0,0,1,.163.743c-.092-.538,0,.271,0,.4,0,.268-.021.532-.042.8.041-.524,0-.029-.021.076q-.051.256-.123.509c-.034.117-.07.233-.11.349s-.257.511-.015.053c-.11.208-.21.417-.336.617-.06.1-.139.187-.194.286-.133.24.322-.34.012-.028-.111.112-.419.55-.59.573l.188-.143c-.074.055-.15.108-.227.159s-.156.1-.236.148c-.122.071-.249.131-.372.2-.394.219.29-.063.017,0s-.513.176-.776.237c-.1.023-.2.039-.3.062-.226.036-.2.035.07,0-.106.012-.211.021-.318.028a7.333,7.333,0,0,1-.812.009c-.158-.008-.315-.022-.472-.038.07.007.432.084.075,0-.268-.062-.534-.119-.8-.206-.116-.039-.229-.082-.343-.126.5.194,0-.017-.107-.075a6.669,6.669,0,0,1-.654-.42c.439.311-.124-.138-.226-.243a2.806,2.806,0,0,0-.236-.261c-.209-.165.248.387.011.014-.155-.243-.3-.488-.437-.739-.237-.42.121.4-.029-.06-.03-.095-.067-.188-.1-.283a7.634,7.634,0,0,1-.211-.894c.013.07.035.436.012.058-.01-.163-.024-.326-.028-.489,0-.134,0-.268,0-.4s.086-.693,0-.16a6.579,6.579,0,0,1,.206-.886c.045-.143.1-.283.151-.423-.119.308-.054.133.049-.063a6.232,6.232,0,0,1,.473-.751c-.3.412,0,.021.065-.051q.15-.164.314-.315c.069-.064.46-.368.052-.069.122-.089.245-.174.372-.254s.26-.157.394-.227c.183-.095.4-.167.082-.053a7.033,7.033,0,0,1,.909-.272c.091-.019.614-.073.115-.031.227-.019.451-.032.679-.035a2,2,0,0,0,0-4Z"></path>
                            <path class="c"
                                  d="M200.6,0a7.873,7.873,0,0,0-7.512,5.481,8.071,8.071,0,0,0,2.56,8.619,8.389,8.389,0,0,0,9.077.611,7.988,7.988,0,0,0,3.6-8.273A7.807,7.807,0,0,0,200.6,0a2.02,2.02,0,0,0-2,2,2.037,2.037,0,0,0,2,2c.17,0,.34.016.51.02.534.012-.388-.106.122.014.26.061.518.113.772.2.1.032.195.07.293.105-.467-.169,0,.006.082.052a5.882,5.882,0,0,1,.766.479c-.417-.3.168.173.266.274s.2.22.3.33c-.3-.33-.07-.1,0,.008.146.231.278.466.414.7.051.089.138.347-.019-.07.071.188.14.376.2.569a6.758,6.758,0,0,1,.163.744c-.091-.539,0,.27,0,.4,0,.267-.021.532-.042.8.041-.524,0-.029-.021.077q-.051.257-.123.508c-.033.117-.07.234-.11.349s-.257.511-.015.054c-.11.207-.21.417-.336.616-.06.1-.139.187-.194.286-.133.24.322-.34.012-.028-.111.112-.419.55-.59.573l.188-.143c-.074.055-.15.108-.227.159s-.156.1-.236.148c-.122.072-.249.131-.372.2-.394.219.291-.062.017,0s-.513.176-.776.237c-.1.023-.2.039-.3.062-.225.037-.2.035.07,0-.106.012-.211.021-.317.028a7.351,7.351,0,0,1-.813.009c-.158-.007-.314-.022-.472-.038.07.007.432.085.075,0-.268-.062-.534-.119-.8-.206-.115-.039-.229-.081-.343-.126.5.194,0-.017-.107-.075a6.722,6.722,0,0,1-.654-.42c.439.311-.124-.137-.226-.243a2.792,2.792,0,0,0-.236-.261c-.209-.165.249.388.011.015-.155-.244-.3-.489-.436-.74-.237-.42.12.4-.03-.06-.03-.1-.066-.187-.1-.282a7.65,7.65,0,0,1-.211-.895c.013.071.035.437.012.058-.01-.163-.024-.325-.028-.489,0-.134,0-.267,0-.4s.085-.692-.006-.16a6.53,6.53,0,0,1,.206-.885c.045-.144.1-.284.152-.424-.12.308-.055.134.048-.062a6.291,6.291,0,0,1,.473-.752c-.3.412,0,.022.065-.05.1-.109.205-.215.314-.316.069-.064.46-.368.053-.068.121-.089.244-.175.371-.255s.26-.156.394-.226c.183-.1.4-.168.083-.053a6.675,6.675,0,0,1,.908-.272c.091-.02.614-.073.116-.032.226-.019.451-.032.678-.035a2.024,2.024,0,0,0,2-2A2.033,2.033,0,0,0,200.6,0Z"></path>
                            <path class="c"
                                  d="M61.551,25.512a7.872,7.872,0,0,0-7.512,5.481,8.069,8.069,0,0,0,2.56,8.619,8.389,8.389,0,0,0,9.077.611,7.988,7.988,0,0,0,3.6-8.273,7.807,7.807,0,0,0-7.729-6.438,2,2,0,0,0,0,4c.17,0,.34.016.51.02.534.012-.388-.106.122.014.259.061.518.114.772.2.1.033.2.07.293.105-.468-.169,0,.006.082.052a5.95,5.95,0,0,1,.766.479c-.418-.3.167.173.266.274s.2.22.3.33c-.3-.33-.07-.1,0,.008.146.231.278.466.413.7.051.089.139.348-.018-.07.071.188.14.376.2.569a7,7,0,0,1,.163.744c-.092-.539,0,.271,0,.4,0,.267-.021.532-.042.8.041-.524,0-.029-.021.077q-.051.257-.123.508c-.034.117-.07.234-.11.349s-.257.511-.015.054c-.11.207-.21.417-.336.616-.061.1-.139.187-.194.286-.133.24.322-.34.012-.028-.111.112-.419.55-.59.573l.188-.142c-.074.055-.15.107-.227.158s-.156.1-.236.148c-.122.072-.249.131-.372.2-.394.219.29-.062.017,0s-.513.176-.776.237c-.1.023-.2.039-.3.062-.226.037-.2.035.07,0-.106.012-.212.021-.318.028a7.333,7.333,0,0,1-.812.009c-.158-.007-.315-.022-.472-.038.07.007.432.085.075,0-.268-.061-.534-.119-.8-.206-.116-.039-.229-.081-.343-.126.5.194,0-.017-.107-.075a6.488,6.488,0,0,1-.654-.42c.438.311-.124-.137-.226-.243a2.939,2.939,0,0,0-.236-.261c-.209-.165.248.388.011.015-.155-.244-.3-.489-.437-.739-.237-.421.121.4-.029-.061-.03-.095-.067-.187-.1-.282a7.65,7.65,0,0,1-.211-.9c.013.071.035.437.012.058-.01-.163-.024-.325-.028-.489,0-.134,0-.267,0-.4s.086-.692-.005-.16a6.53,6.53,0,0,1,.206-.885c.045-.144.1-.284.151-.424-.119.308-.054.134.049-.062a6.244,6.244,0,0,1,.473-.752c-.3.412,0,.022.065-.05.1-.109.2-.215.313-.315.07-.065.461-.369.053-.069.122-.089.245-.175.372-.255s.26-.156.394-.226c.183-.095.4-.168.082-.053a6.731,6.731,0,0,1,.909-.272c.091-.02.614-.073.115-.032.227-.019.451-.032.679-.035a2,2,0,0,0,0-4Z"></path>
                        </g>
                    </svg>