 <svg fill="#000000" viewBox="0 0 20 20" xmlns="http://www.w3.org/2000/svg">
                    <g id="SVGRepo_bgCarrier" stroke-width="0"></g>
                    <g id="SVGRepo_tracerCarrier" stroke-linecap="round" stroke-linejoin="round"></g>
                    <g id="SVGRepo_iconCarrier">
                        <g id="user-circle-2" transform="translate(-2 -2)">
                            <path d="M12,3A9,9,0,0,0,5.55,18.27a7,7,0,0,1,4.28-3.92h0a4,4,0,1,1,4.34,0h0a7,7,0,0,1,4.28,3.92A9,9,0,0,0,12,3Z"
                                  fill="#2ca9bc"
                                  id="secondary"></path>
                            <path d="M16,11a4,4,0,1,1-4-4A4,4,0,0,1,16,11Zm-1.83,3.35a3.95,3.95,0,0,1-4.34,0,7,7,0,0,0-4.28,3.92,9,9,0,0,0,12.81.09l.09-.09a7,7,0,0,0-4.28-3.92ZM21,12h0a9,9,0,0,0-9-9h0a9,9,0,0,0-9,9H3a9,9,0,0,0,9,9h0a9,9,0,0,0,9-9Z"
                                  fill="none"
                                  id="primary" stroke="#000000" stroke-linecap="round" stroke-linejoin="round"
                                  stroke-width="2"></path>
                        </g>
                    </g>
                </svg>